<mxfile modified="2021-03-12T08:31:23.990Z" host="app.diagrams.net" agent="5.0 (Windows NT 10.0; WOW64) AppleWebKit/537.36 (KHTML, like Gecko) Chrome/87.0.4280.141 Safari/537.36" etag="RsVYlFxot6xTFrVfTMmR" version="14.1.9" type="github">
  <diagram id="Ht1M8jgEwFfnCIfOTk4-" name="Page-1">
    <mxGraphModel dx="1420" dy="2456" grid="1" gridSize="10" guides="1" tooltips="1" connect="1" arrows="1" fold="1" page="1" pageScale="1" pageWidth="1169" pageHeight="827" math="0" shadow="0">
      <root>
        <mxCell id="0" />
        <mxCell id="1" parent="0" />
        <mxCell id="1EvlkH0hOi8vOrloT5KJ-11" value="" style="edgeStyle=orthogonalEdgeStyle;rounded=0;orthogonalLoop=1;jettySize=auto;html=1;" edge="1" parent="1" source="1EvlkH0hOi8vOrloT5KJ-1" target="1EvlkH0hOi8vOrloT5KJ-10">
          <mxGeometry relative="1" as="geometry" />
        </mxCell>
        <mxCell id="1EvlkH0hOi8vOrloT5KJ-1" value="Actor" style="shape=umlActor;verticalLabelPosition=bottom;verticalAlign=top;html=1;outlineConnect=0;" vertex="1" parent="1">
          <mxGeometry x="120" y="-1360" width="30" height="60" as="geometry" />
        </mxCell>
        <mxCell id="1EvlkH0hOi8vOrloT5KJ-26" style="edgeStyle=orthogonalEdgeStyle;rounded=0;orthogonalLoop=1;jettySize=auto;html=1;entryX=0.5;entryY=1;entryDx=0;entryDy=0;entryPerimeter=0;" edge="1" parent="1" source="1EvlkH0hOi8vOrloT5KJ-2" target="1EvlkH0hOi8vOrloT5KJ-24">
          <mxGeometry relative="1" as="geometry" />
        </mxCell>
        <mxCell id="1EvlkH0hOi8vOrloT5KJ-28" style="edgeStyle=orthogonalEdgeStyle;rounded=0;orthogonalLoop=1;jettySize=auto;html=1;" edge="1" parent="1" source="1EvlkH0hOi8vOrloT5KJ-2" target="1EvlkH0hOi8vOrloT5KJ-25">
          <mxGeometry relative="1" as="geometry" />
        </mxCell>
        <mxCell id="1EvlkH0hOi8vOrloT5KJ-2" value="admin-api" style="whiteSpace=wrap;html=1;aspect=fixed;" vertex="1" parent="1">
          <mxGeometry x="210" y="-680" width="80" height="80" as="geometry" />
        </mxCell>
        <mxCell id="1EvlkH0hOi8vOrloT5KJ-4" value="pine-consumer" style="whiteSpace=wrap;html=1;aspect=fixed;" vertex="1" parent="1">
          <mxGeometry x="180" y="-380" width="180" height="180" as="geometry" />
        </mxCell>
        <mxCell id="1EvlkH0hOi8vOrloT5KJ-32" style="edgeStyle=orthogonalEdgeStyle;rounded=0;orthogonalLoop=1;jettySize=auto;html=1;entryX=0.5;entryY=1;entryDx=0;entryDy=0;entryPerimeter=0;" edge="1" parent="1" source="1EvlkH0hOi8vOrloT5KJ-5" target="1EvlkH0hOi8vOrloT5KJ-31">
          <mxGeometry relative="1" as="geometry" />
        </mxCell>
        <mxCell id="1EvlkH0hOi8vOrloT5KJ-5" value="" style="whiteSpace=wrap;html=1;aspect=fixed;" vertex="1" parent="1">
          <mxGeometry x="640" y="-810" width="80" height="80" as="geometry" />
        </mxCell>
        <mxCell id="1EvlkH0hOi8vOrloT5KJ-6" value="" style="whiteSpace=wrap;html=1;aspect=fixed;" vertex="1" parent="1">
          <mxGeometry x="440" y="-810" width="80" height="80" as="geometry" />
        </mxCell>
        <mxCell id="1EvlkH0hOi8vOrloT5KJ-18" style="edgeStyle=orthogonalEdgeStyle;rounded=0;orthogonalLoop=1;jettySize=auto;html=1;entryX=0;entryY=0.5;entryDx=0;entryDy=0;" edge="1" parent="1" source="1EvlkH0hOi8vOrloT5KJ-7" target="1EvlkH0hOi8vOrloT5KJ-2">
          <mxGeometry relative="1" as="geometry" />
        </mxCell>
        <mxCell id="1EvlkH0hOi8vOrloT5KJ-7" value="Actor" style="shape=umlActor;verticalLabelPosition=bottom;verticalAlign=top;html=1;outlineConnect=0;" vertex="1" parent="1">
          <mxGeometry x="70" y="-670" width="30" height="60" as="geometry" />
        </mxCell>
        <mxCell id="1EvlkH0hOi8vOrloT5KJ-8" value="admin-api" style="whiteSpace=wrap;html=1;aspect=fixed;" vertex="1" parent="1">
          <mxGeometry x="250" y="-1160" width="80" height="80" as="geometry" />
        </mxCell>
        <mxCell id="1EvlkH0hOi8vOrloT5KJ-9" value="callback-api" style="whiteSpace=wrap;html=1;aspect=fixed;" vertex="1" parent="1">
          <mxGeometry x="450" y="-1370" width="80" height="80" as="geometry" />
        </mxCell>
        <mxCell id="1EvlkH0hOi8vOrloT5KJ-12" value="" style="edgeStyle=orthogonalEdgeStyle;rounded=0;orthogonalLoop=1;jettySize=auto;html=1;" edge="1" parent="1" source="1EvlkH0hOi8vOrloT5KJ-10" target="1EvlkH0hOi8vOrloT5KJ-8">
          <mxGeometry relative="1" as="geometry" />
        </mxCell>
        <mxCell id="1EvlkH0hOi8vOrloT5KJ-10" value="api-gateway 3A" style="whiteSpace=wrap;html=1;aspect=fixed;" vertex="1" parent="1">
          <mxGeometry x="250" y="-1370" width="80" height="80" as="geometry" />
        </mxCell>
        <mxCell id="1EvlkH0hOi8vOrloT5KJ-35" style="edgeStyle=orthogonalEdgeStyle;rounded=0;orthogonalLoop=1;jettySize=auto;html=1;entryX=1;entryY=0.25;entryDx=0;entryDy=0;" edge="1" parent="1" source="1EvlkH0hOi8vOrloT5KJ-13" target="1EvlkH0hOi8vOrloT5KJ-20">
          <mxGeometry relative="1" as="geometry">
            <Array as="points">
              <mxPoint x="980" y="-950" />
              <mxPoint x="980" y="-297" />
            </Array>
          </mxGeometry>
        </mxCell>
        <mxCell id="1EvlkH0hOi8vOrloT5KJ-37" style="edgeStyle=orthogonalEdgeStyle;rounded=0;orthogonalLoop=1;jettySize=auto;html=1;entryX=0;entryY=0.25;entryDx=0;entryDy=0;" edge="1" parent="1" source="1EvlkH0hOi8vOrloT5KJ-13" target="1EvlkH0hOi8vOrloT5KJ-2">
          <mxGeometry relative="1" as="geometry" />
        </mxCell>
        <mxCell id="1EvlkH0hOi8vOrloT5KJ-38" value="push" style="edgeLabel;html=1;align=center;verticalAlign=middle;resizable=0;points=[];" vertex="1" connectable="0" parent="1EvlkH0hOi8vOrloT5KJ-37">
          <mxGeometry x="-0.7676" y="2" relative="1" as="geometry">
            <mxPoint as="offset" />
          </mxGeometry>
        </mxCell>
        <mxCell id="1EvlkH0hOi8vOrloT5KJ-39" value="pull" style="edgeStyle=orthogonalEdgeStyle;rounded=0;orthogonalLoop=1;jettySize=auto;html=1;entryX=0.5;entryY=1;entryDx=0;entryDy=0;" edge="1" parent="1" source="1EvlkH0hOi8vOrloT5KJ-13" target="1EvlkH0hOi8vOrloT5KJ-8">
          <mxGeometry relative="1" as="geometry" />
        </mxCell>
        <mxCell id="1EvlkH0hOi8vOrloT5KJ-13" value="exchange" style="whiteSpace=wrap;html=1;aspect=fixed;" vertex="1" parent="1">
          <mxGeometry x="250" y="-990" width="80" height="80" as="geometry" />
        </mxCell>
        <mxCell id="1EvlkH0hOi8vOrloT5KJ-14" value="" style="endArrow=none;dashed=1;html=1;dashPattern=1 3;strokeWidth=2;" edge="1" parent="1">
          <mxGeometry width="50" height="50" relative="1" as="geometry">
            <mxPoint x="40" y="-1040" as="sourcePoint" />
            <mxPoint x="860" y="-1040" as="targetPoint" />
          </mxGeometry>
        </mxCell>
        <mxCell id="1EvlkH0hOi8vOrloT5KJ-15" value="" style="endArrow=none;dashed=1;html=1;dashPattern=1 3;strokeWidth=2;" edge="1" parent="1">
          <mxGeometry width="50" height="50" relative="1" as="geometry">
            <mxPoint x="40" y="-840" as="sourcePoint" />
            <mxPoint x="860" y="-840" as="targetPoint" />
          </mxGeometry>
        </mxCell>
        <mxCell id="1EvlkH0hOi8vOrloT5KJ-16" value="" style="endArrow=none;dashed=1;html=1;dashPattern=1 3;strokeWidth=2;" edge="1" parent="1">
          <mxGeometry width="50" height="50" relative="1" as="geometry">
            <mxPoint x="40" y="-1480" as="sourcePoint" />
            <mxPoint x="860" y="-1480" as="targetPoint" />
          </mxGeometry>
        </mxCell>
        <mxCell id="1EvlkH0hOi8vOrloT5KJ-17" value="" style="endArrow=none;dashed=1;html=1;dashPattern=1 3;strokeWidth=2;" edge="1" parent="1">
          <mxGeometry width="50" height="50" relative="1" as="geometry">
            <mxPoint x="40" y="-180" as="sourcePoint" />
            <mxPoint x="860" y="-180" as="targetPoint" />
          </mxGeometry>
        </mxCell>
        <mxCell id="1EvlkH0hOi8vOrloT5KJ-19" value="pine-chassis" style="whiteSpace=wrap;html=1;aspect=fixed;" vertex="1" parent="1">
          <mxGeometry x="520" y="-520" width="160" height="160" as="geometry" />
        </mxCell>
        <mxCell id="1EvlkH0hOi8vOrloT5KJ-20" value="pine-feedback" style="whiteSpace=wrap;html=1;aspect=fixed;" vertex="1" parent="1">
          <mxGeometry x="550" y="-330" width="130" height="130" as="geometry" />
        </mxCell>
        <mxCell id="1EvlkH0hOi8vOrloT5KJ-21" value="mysql" style="shape=cylinder3;whiteSpace=wrap;html=1;boundedLbl=1;backgroundOutline=1;size=15;" vertex="1" parent="1">
          <mxGeometry x="220" y="-500" width="60" height="80" as="geometry" />
        </mxCell>
        <mxCell id="1EvlkH0hOi8vOrloT5KJ-23" value="" style="endArrow=none;dashed=1;html=1;dashPattern=1 3;strokeWidth=2;entryX=0.5;entryY=1;entryDx=0;entryDy=0;exitX=0.5;exitY=0;exitDx=0;exitDy=0;exitPerimeter=0;" edge="1" parent="1" source="1EvlkH0hOi8vOrloT5KJ-21" target="1EvlkH0hOi8vOrloT5KJ-2">
          <mxGeometry width="50" height="50" relative="1" as="geometry">
            <mxPoint x="230" y="-550" as="sourcePoint" />
            <mxPoint x="280" y="-600" as="targetPoint" />
          </mxGeometry>
        </mxCell>
        <mxCell id="1EvlkH0hOi8vOrloT5KJ-27" style="edgeStyle=orthogonalEdgeStyle;rounded=0;orthogonalLoop=1;jettySize=auto;html=1;entryX=0;entryY=0.5;entryDx=0;entryDy=0;" edge="1" parent="1" source="1EvlkH0hOi8vOrloT5KJ-24" target="1EvlkH0hOi8vOrloT5KJ-6">
          <mxGeometry relative="1" as="geometry" />
        </mxCell>
        <mxCell id="1EvlkH0hOi8vOrloT5KJ-24" value="" style="shape=cylinder3;whiteSpace=wrap;html=1;boundedLbl=1;backgroundOutline=1;size=15;rotation=89;" vertex="1" parent="1">
          <mxGeometry x="300" y="-810" width="60" height="80" as="geometry" />
        </mxCell>
        <mxCell id="1EvlkH0hOi8vOrloT5KJ-29" style="edgeStyle=orthogonalEdgeStyle;rounded=0;orthogonalLoop=1;jettySize=auto;html=1;entryX=0;entryY=0.5;entryDx=0;entryDy=0;" edge="1" parent="1" source="1EvlkH0hOi8vOrloT5KJ-25" target="1EvlkH0hOi8vOrloT5KJ-5">
          <mxGeometry relative="1" as="geometry" />
        </mxCell>
        <mxCell id="1EvlkH0hOi8vOrloT5KJ-25" value="" style="shape=cylinder3;whiteSpace=wrap;html=1;boundedLbl=1;backgroundOutline=1;size=15;rotation=89;" vertex="1" parent="1">
          <mxGeometry x="420" y="-680" width="60" height="80" as="geometry" />
        </mxCell>
        <mxCell id="1EvlkH0hOi8vOrloT5KJ-33" style="edgeStyle=orthogonalEdgeStyle;rounded=0;orthogonalLoop=1;jettySize=auto;html=1;entryX=0.5;entryY=0;entryDx=0;entryDy=0;exitX=0.5;exitY=0;exitDx=0;exitDy=0;exitPerimeter=0;" edge="1" parent="1" source="1EvlkH0hOi8vOrloT5KJ-31" target="1EvlkH0hOi8vOrloT5KJ-19">
          <mxGeometry relative="1" as="geometry" />
        </mxCell>
        <mxCell id="1EvlkH0hOi8vOrloT5KJ-31" value="" style="shape=cylinder3;whiteSpace=wrap;html=1;boundedLbl=1;backgroundOutline=1;size=15;rotation=89;" vertex="1" parent="1">
          <mxGeometry x="650" y="-670" width="60" height="80" as="geometry" />
        </mxCell>
        <mxCell id="1EvlkH0hOi8vOrloT5KJ-34" value="" style="endArrow=classic;html=1;entryX=1;entryY=0.5;entryDx=0;entryDy=0;" edge="1" parent="1" target="1EvlkH0hOi8vOrloT5KJ-20">
          <mxGeometry width="50" height="50" relative="1" as="geometry">
            <mxPoint x="760" y="-265" as="sourcePoint" />
            <mxPoint x="820" y="-280" as="targetPoint" />
          </mxGeometry>
        </mxCell>
      </root>
    </mxGraphModel>
  </diagram>
</mxfile>
